<svg width="512" height="512" viewBox="0 0 512 512" fill="none" xmlns="http://www.w3.org/2000/svg">
  <rect width="512" height="512" rx="128" fill="#4F46E5"/>
  <path d="M256 128C181.9 128 122 187.9 122 262C122 336.1 181.9 396 256 396C330.1 396 390 336.1 390 262C390 187.9 330.1 128 256 128ZM256 368C197.2 368 150 320.8 150 262C150 203.2 197.2 156 256 156C314.8 156 362 203.2 362 262C362 320.8 314.8 368 256 368Z" fill="white"/>
  <path d="M256 184C212.3 184 177 219.3 177 263C177 306.7 212.3 342 256 342C299.7 342 335 306.7 335 263C335 219.3 299.7 184 256 184ZM284.5 305.5L256 277L227.5 305.5L213.5 291.5L242 263L213.5 234.5L227.5 220.5L256 249L284.5 220.5L298.5 234.5L270 263L298.5 291.5L284.5 305.5Z" fill="white"/>
</svg> 